<svg width="360" height="251" viewBox="0 0 360 251" fill="none" xmlns="http://www.w3.org/2000/svg">
  <defs>
    <linearGradient id="grad_tv" x1="0%" y1="0%" x2="100%" y2="100%">
      <stop offset="0%" stop-color="#495CDE" />
      <stop offset="100%" stop-color="#2B3BA3" />
    </linearGradient>
  </defs>
  <path d="M0 10C0 4.47715 4.47715 0 10 0H350C355.523 0 360 4.47715 360 10V231C360 242.046 351.046 251 340 251H20C8.95432 251 0 242.046 0 231V10Z" fill="url(#grad_tv)"/>
  
  <!-- 波浪线 -->
  <path d="M0 220C40 200 80 230 120 210C160 190 200 220 240 200C280 180 320 210 360 190" stroke="white" stroke-width="2" stroke-opacity="0.5"/>
  <path d="M0 180C40 160 80 190 120 170C160 150 200 180 240 160C280 140 320 170 360 150" stroke="white" stroke-width="1" stroke-opacity="0.3"/>
  
  <!-- 电视图标 -->
  <rect x="100" y="60" width="160" height="100" rx="5" fill="white" fill-opacity="0.15" stroke="white" stroke-width="2" stroke-opacity="0.8"/>
  <rect x="110" y="70" width="140" height="70" fill="white" fill-opacity="0.3"/>
  
  <!-- 电视支架 -->
  <path d="M160 160L140 180H220L200 160" fill="white" fill-opacity="0.15" stroke="white" stroke-width="1.5" stroke-opacity="0.8"/>
  
  <!-- 电视按钮 -->
  <circle cx="180" cy="150" r="4" fill="white" fill-opacity="0.8"/>
  <circle cx="200" cy="150" r="4" fill="white" fill-opacity="0.8"/>
  <circle cx="220" cy="150" r="4" fill="white" fill-opacity="0.8"/>
  
  <!-- 装饰元素 -->
  <circle cx="60" cy="40" r="15" fill="white" fill-opacity="0.1"/>
  <circle cx="300" cy="40" r="20" fill="white" fill-opacity="0.1"/>
  <rect x="40" y="100" width="30" height="30" rx="5" fill="white" fill-opacity="0.1"/>
  <rect x="290" cy="100" width="30" height="30" rx="15" fill="white" fill-opacity="0.1"/>
  
  <!-- 视频播放图标 -->
  <polygon points="175,105 195,90 195,120" fill="white" fill-opacity="0.5"/>
</svg>