<svg width="360" height="251" viewBox="0 0 360 251" fill="none" xmlns="http://www.w3.org/2000/svg">
  <defs>
    <linearGradient id="grad1" x1="0%" y1="0%" x2="100%" y2="100%">
      <stop offset="0%" stop-color="#60B9CB" />
      <stop offset="100%" stop-color="#4095A8" />
    </linearGradient>
    <linearGradient id="grad2" x1="0%" y1="0%" x2="100%" y2="0%">
      <stop offset="0%" stop-color="white" stop-opacity="0.1" />
      <stop offset="100%" stop-color="white" stop-opacity="0.3" />
    </linearGradient>
  </defs>
  <path d="M0 10C0 4.47715 4.47715 0 10 0H350C355.523 0 360 4.47715 360 10V231C360 242.046 351.046 251 340 251H20C8.95432 251 0 242.046 0 231V10Z" fill="url(#grad1)"/>
  
  <!-- 设计元素: 波浪线 -->
  <path d="M0 70C60 50 120 80 180 60C240 40 300 70 360 50" stroke="white" stroke-width="1.5" stroke-opacity="0.6"/>
  <path d="M0 120C60 100 120 130 180 110C240 90 300 120 360 100" stroke="white" stroke-width="1.5" stroke-opacity="0.6"/>
  <path d="M0 170C60 150 120 180 180 160C240 140 300 170 360 150" stroke="white" stroke-width="1.5" stroke-opacity="0.6"/>
  
  <!-- 设计元素: 商业图标 -->
  <rect x="120" y="50" width="120" height="70" rx="5" fill="url(#grad2)" stroke="white" stroke-width="2" stroke-opacity="0.8"/>
  <line x1="120" y1="70" x2="240" y2="70" stroke="white" stroke-width="1.5" stroke-opacity="0.8"/>
  <rect x="130" y="80" width="40" height="30" rx="2" fill="white" fill-opacity="0.3"/>
  <rect x="180" y="80" width="50" height="10" rx="2" fill="white" fill-opacity="0.3"/>
  <rect x="180" y="95" width="30" height="10" rx="2" fill="white" fill-opacity="0.3"/>
  
  <!-- 设计元素: 装饰图形 -->
  <circle cx="60" cy="200" r="15" fill="white" fill-opacity="0.1"/>
  <circle cx="300" cy="180" r="25" fill="white" fill-opacity="0.1"/>
  <rect x="180" y="140" width="60" height="30" rx="15" fill="white" fill-opacity="0.1"/>
</svg>